<svg xmlns="http://www.w3.org/2000/svg" version="1.1" xmlns:xlink="http://www.w3.org/1999/xlink" xmlns:svgjs="http://svgjs.dev/svgjs" width="1000" height="199" viewBox="0 0 1000 199"><g transform="matrix(1,0,0,1,-0.6060530695819466,0.33477544479524113)"><svg viewBox="0 0 396 79" data-background-color="#ff5858" preserveAspectRatio="xMidYMid meet" height="199" width="1000" xmlns="http://www.w3.org/2000/svg" xmlns:xlink="http://www.w3.org/1999/xlink"><g id="tight-bounds" transform="matrix(1,0,0,1,0.23999701555445085,-0.13290080471770693)"><svg viewBox="0 0 395.5199999999999 79.2658016094354" height="79.2658016094354" width="395.5199999999999"><g><svg viewBox="0 0 575.0094892383056 115.23712605558838" height="79.2658016094354" width="395.5199999999999"><g><rect width="7.519683757168632" height="83.80123855706678" x="134.92256770367274" y="15.717943749260797" fill="#000000" opacity="1" stroke-width="0" stroke="transparent" fill-opacity="1" class="rect-o-0" data-fill-palette-color="primary" rx="1%" id="o-0" data-palette-color="#ffffff"></rect></g><g><rect width="7.519683757168632" height="83.80123855706678" x="152.28476946760657" y="15.717943749260797" fill="#000000" opacity="1" stroke-width="0" stroke="transparent" fill-opacity="1" class="rect-o-1" data-fill-palette-color="primary" rx="1%" id="o-1" data-palette-color="#ffffff"></rect></g><g transform="matrix(1,0,0,1,179.48948923830562,15.926404541691305)"><svg viewBox="0 0 395.52 83.38431697220577" height="83.38431697220577" width="395.52"><g id="textblocktransform"><svg viewBox="0 0 395.52 83.38431697220577" height="83.38431697220577" width="395.52" id="textblock"><g><svg viewBox="0 0 395.52 83.38431697220577" height="83.38431697220577" width="395.52"><g transform="matrix(1,0,0,1,0,0)"><svg width="395.52" viewBox="1.7999999523162842 -35 169.08999633789062 35.650001525878906" height="83.38431697220577" data-palette-color="#ffffff"><path d="M35.7-23.3L31.1-23.3 31.1-30.15 13.3-30.15 13.3-19.2 21.2-19.2 21.2-23.85 25.2-23.85 25.2-10.75 21.2-10.75 21.2-15.4 13.3-15.4 13.3-4.15 31.1-4.15 31.1-11 35.7-11 35.7 0 1.8 0 1.8-4.15 8.2-4.15 8.2-30.15 1.8-30.15 1.8-34.3 35.7-34.3 35.7-23.3ZM71.55-10.15L74.9-7.35Q72.45-3.75 68.67-1.55 64.9 0.65 59.75 0.65L59.75 0.65Q54.85 0.65 50.77-1.63 46.7-3.9 44.35-7.95 42-12 42-17.1L42-17.1Q42-22.35 44.3-26.43 46.6-30.5 50.45-32.75 54.3-35 58.75-35L58.75-35Q62.35-35 65.12-33.7 67.9-32.4 69.8-30.05L69.8-30.05 69.85-34.3 74.5-34.3 74.5-23.15 71.2-22.85Q67.6-30.85 59.5-30.85L59.5-30.85Q56.25-30.85 53.47-29.18 50.7-27.5 49.02-24.38 47.35-21.25 47.35-17.15L47.35-17.15Q47.35-13.25 49-10.18 50.65-7.1 53.47-5.35 56.3-3.6 59.75-3.6L59.75-3.6Q63.8-3.6 66.62-5.35 69.45-7.1 71.55-10.15L71.55-10.15ZM97.25 0.65Q92.25 0.65 88.17-1.63 84.1-3.9 81.77-7.95 79.45-12 79.45-17.15L79.45-17.15Q79.45-22.35 81.77-26.4 84.1-30.45 88.17-32.73 92.25-35 97.25-35L97.25-35Q102.2-35 106.27-32.73 110.35-30.45 112.67-26.38 115-22.3 115-17.15L115-17.15Q115-12 112.67-7.95 110.35-3.9 106.27-1.63 102.2 0.65 97.25 0.65L97.25 0.65ZM97.25-3.65Q100.85-3.65 103.67-5.38 106.5-7.1 108.07-10.18 109.65-13.25 109.65-17.15L109.65-17.15Q109.65-21.1 108.07-24.18 106.5-27.25 103.67-28.98 100.85-30.7 97.25-30.7L97.25-30.7Q93.6-30.7 90.75-28.98 87.9-27.25 86.35-24.15 84.8-21.05 84.8-17.15L84.8-17.15Q84.8-13.2 86.35-10.13 87.9-7.05 90.72-5.35 93.55-3.65 97.25-3.65L97.25-3.65ZM164.44-4.15L170.89-4.15 170.89 0 153.44 0 153.44-4.15 159.39-4.15 159.39-20.95Q159.39-23.35 159.99-27.2L159.99-27.2 146.34 0.35 143.74 0.35 130.19-27Q130.64-23.05 130.64-20.95L130.64-20.95 130.64-4.15 136.59-4.15 136.59 0 119.39 0 119.39-4.15 125.79-4.15 125.79-30.15 119.39-30.15 119.39-34.3 131.49-34.3 145.24-6.85 158.74-34.3 170.84-34.3 170.84-30.15 164.44-30.15 164.44-4.15Z" opacity="1" transform="matrix(1,0,0,1,0,0)" fill="#000000" class="wordmark-text-0" data-fill-palette-color="primary" id="text-0"></path></svg></g></svg></g></svg></g></svg></g><g><svg viewBox="0 0 115.23753169014229 115.23712605558838" height="115.23712605558838" width="115.23753169014229"><g><svg xmlns="http://www.w3.org/2000/svg" xmlns:xlink="http://www.w3.org/1999/xlink" version="1.1" x="0" y="0" viewBox="7.734947204589844 7.735245704650879 84.53054809570312 84.5302505493164" enable-background="new 0 0 100 100" xml:space="preserve" height="115.23712605558838" width="115.23753169014229" class="icon-icon-0" data-fill-palette-color="accent" id="icon-0"><g fill="#ffffff" data-fill-palette-color="accent"><g fill="#ffffff" data-fill-palette-color="accent"><g fill="#ffffff" data-fill-palette-color="accent"><path d="M28.368 14.767C42.162 16.327 48.04 25.762 49.69 30.695c1.07 3.198 1.472 5.094 1.472 9.275 0 0.817 0.044 2.076-1.054 2.216-0.77 0.099-1.209-0.509-1.273-1.182-0.289-3.026-1.159-6.569-4.008-9.85-2.253-2.594-7.472-7.802-16.652-7.021-2.669 0.228-5.052-1.868-5.129-4.564C22.964 16.703 25.531 14.446 28.368 14.767z" fill="#000000" data-fill-palette-color="accent"></path><path d="M71.633 85.232c-13.794-1.561-19.671-10.995-21.322-15.929-1.07-3.198-1.472-5.094-1.472-9.275 0-0.817-0.044-2.076 1.054-2.216 0.77-0.099 1.209 0.509 1.273 1.182 0.289 3.026 1.159 6.569 4.008 9.85 2.253 2.594 7.472 7.802 16.652 7.021 2.669-0.228 5.052 1.868 5.129 4.564C77.037 83.296 74.47 85.553 71.633 85.232z" fill="#000000" data-fill-palette-color="accent"></path></g><g fill="#ffffff" data-fill-palette-color="accent"><path d="M14.768 71.633c1.56-13.794 10.995-19.672 15.928-21.322 3.198-1.07 5.094-1.472 9.276-1.472 0.817 0 2.076-0.045 2.216 1.054 0.098 0.77-0.509 1.209-1.182 1.273-3.026 0.288-6.569 1.159-9.849 4.008-2.594 2.254-7.802 7.473-7.021 16.652 0.228 2.669-1.868 5.052-4.564 5.129C16.704 77.036 14.447 74.47 14.768 71.633z" fill="#000000" data-fill-palette-color="accent"></path><path d="M85.233 28.367c-1.56 13.794-10.995 19.672-15.928 21.322-3.198 1.07-5.094 1.472-9.276 1.472-0.817 0-2.076 0.045-2.216-1.054-0.098-0.77 0.509-1.209 1.182-1.273 3.026-0.288 6.569-1.159 9.849-4.008 2.594-2.254 7.802-7.473 7.021-16.652-0.228-2.669 1.868-5.052 4.564-5.129C83.297 22.964 85.554 25.53 85.233 28.367z" fill="#000000" data-fill-palette-color="accent"></path></g></g><g fill="#ffffff" data-fill-palette-color="accent"><g fill="#ffffff" data-fill-palette-color="accent"><path d="M13.65 30.304c12.726-5.546 22.533-0.314 26.43 3.133 2.526 2.234 3.821 3.676 5.912 7.297 0.409 0.708 1.077 1.775 0.195 2.446-0.617 0.47-1.302 0.164-1.693-0.387-1.763-2.477-4.289-5.109-8.396-6.525-3.249-1.12-10.373-3.021-17.931 2.246-2.198 1.531-5.309 0.907-6.724-1.389C9.938 34.682 11.033 31.444 13.65 30.304z" fill="#000000" data-fill-palette-color="accent"></path><path d="M86.351 69.695c-12.726 5.546-22.533 0.314-26.43-3.133-2.526-2.234-3.821-3.676-5.912-7.297-0.409-0.708-1.077-1.775-0.196-2.446 0.618-0.47 1.302-0.164 1.694 0.387 1.763 2.477 4.289 5.109 8.396 6.525 3.249 1.12 10.373 3.021 17.931-2.245 2.198-1.532 5.309-0.908 6.724 1.388C90.063 65.317 88.968 68.555 86.351 69.695z" fill="#000000" data-fill-palette-color="accent"></path></g><g fill="#ffffff" data-fill-palette-color="accent"><path d="M30.304 86.351c-5.546-12.726-0.314-22.533 3.133-26.43 2.235-2.525 3.676-3.821 7.298-5.912 0.708-0.409 1.775-1.076 2.445-0.195 0.47 0.617 0.164 1.302-0.387 1.693-2.477 1.764-5.109 4.289-6.525 8.396-1.12 3.248-3.021 10.372 2.246 17.931 1.531 2.198 0.908 5.31-1.389 6.725C34.683 90.062 31.445 88.968 30.304 86.351z" fill="#000000" data-fill-palette-color="accent"></path><path d="M69.696 13.649c5.546 12.726 0.314 22.533-3.133 26.43-2.234 2.526-3.675 3.821-7.297 5.913-0.708 0.408-1.775 1.076-2.446 0.195-0.47-0.618-0.163-1.303 0.388-1.694 2.477-1.763 5.109-4.288 6.525-8.396 1.12-3.249 3.021-10.372-2.246-17.932-1.532-2.198-0.908-5.309 1.388-6.724C65.318 9.938 68.556 11.032 69.696 13.649z" fill="#000000" data-fill-palette-color="accent"></path></g></g><g fill="#ffffff" data-fill-palette-color="accent"><g fill="#ffffff" data-fill-palette-color="accent"><path d="M8.671 51.118c8.248-11.166 19.357-11.539 24.456-10.502 3.305 0.672 5.147 1.272 8.769 3.363 0.708 0.408 1.82 0.999 1.392 2.021-0.299 0.716-1.045 0.793-1.66 0.512-2.765-1.263-6.269-2.28-10.533-1.453-3.374 0.654-10.494 2.57-14.406 10.911-1.138 2.425-4.144 3.44-6.518 2.159C7.646 56.766 6.976 53.414 8.671 51.118z" fill="#000000" data-fill-palette-color="accent"></path><path d="M91.329 48.882C83.081 60.047 71.971 60.42 66.874 59.383c-3.305-0.672-5.147-1.272-8.769-3.363-0.708-0.408-1.82-0.999-1.393-2.021 0.3-0.716 1.046-0.793 1.66-0.512 2.766 1.264 6.269 2.28 10.534 1.453 3.373-0.654 10.493-2.569 14.406-10.91 1.138-2.426 4.144-3.441 6.517-2.16C92.354 43.233 93.025 46.585 91.329 48.882z" fill="#000000" data-fill-palette-color="accent"></path></g><g fill="#ffffff" data-fill-palette-color="accent"><path d="M51.119 91.329C39.953 83.081 39.58 71.972 40.617 66.874c0.673-3.305 1.272-5.147 3.364-8.77 0.409-0.708 1-1.819 2.02-1.392 0.716 0.3 0.793 1.045 0.512 1.66-1.263 2.765-2.28 6.269-1.453 10.533 0.654 3.374 2.57 10.493 10.911 14.406 2.425 1.138 3.44 4.144 2.159 6.518C56.766 92.354 53.415 93.025 51.119 91.329z" fill="#000000" data-fill-palette-color="accent"></path><path d="M48.882 8.672c11.166 8.247 11.538 19.356 10.501 24.455-0.672 3.305-1.271 5.147-3.362 8.77-0.409 0.707-1 1.819-2.021 1.392-0.716-0.3-0.792-1.046-0.511-1.661 1.263-2.765 2.28-6.268 1.453-10.533-0.655-3.373-2.57-10.492-10.911-14.406-2.426-1.137-3.44-4.144-2.159-6.517C43.234 7.646 46.585 6.976 48.882 8.672z" fill="#000000" data-fill-palette-color="accent"></path></g></g></g></svg></g></svg></g></svg></g><defs></defs></svg><rect width="395.5199999999999" height="79.2658016094354" fill="none" stroke="none" visibility="hidden"></rect></g></svg></g></svg>